<svg role="img" viewBox="0 0 24 24" xmlns="http://www.w3.org/2000/svg" id="Rootme--Streamline-Simple-Icons" height="24" width="24">
  <desc>
    Rootme Streamline Icon: https://streamlinehq.com
  </desc>
  <title>Root Me</title>
  <path d="M21.364 9.897c0 -0.448 -0.029 -0.896 -0.096 -1.325 0 -0.028 -0.009 -0.057 -0.009 -0.086 -0.582 -3.785 -3.452 -6.894 -7.228 -7.723 -0.095 -0.429 -0.477 -0.753 -0.934 -0.753 -0.534 0 -0.964 0.429 -0.964 0.963 0 0.457 0.325 0.839 0.754 0.934v3.519c0 0.057 0.028 0.114 0.076 0.152 0.029 0.019 0.067 0.029 0.105 0.029 0.019 0 0.048 0 0.067 -0.01l1.411 -0.534c0.095 0.143 0.238 0.239 0.41 0.286v1.659c-0.715 0.878 -1.602 1.669 -2.546 2.375l-1.077 -2.499c0.2 -0.133 0.333 -0.352 0.333 -0.61 0 -0.4 -0.324 -0.734 -0.734 -0.734 -0.4 0 -0.734 0.324 -0.734 0.734 0 0.401 0.324 0.734 0.734 0.734h0.038l1.125 2.603c-0.658 0.477 -1.335 0.906 -2.002 1.297l-3.204 -0.963c-0.038 -0.009 -0.076 -0.009 -0.114 0.01l-0.954 0.372c-0.133 -0.182 -0.343 -0.296 -0.591 -0.296 -0.4 0 -0.734 0.324 -0.734 0.734 0 0.401 0.324 0.734 0.734 0.734 0.401 0 0.734 -0.324 0.734 -0.734 0 -0.028 -0.009 -0.057 -0.009 -0.086l0.896 -0.352 2.794 0.839c-2.384 1.335 -4.52 2.107 -4.873 2.231l-0.171 0.057a0.9205 0.9205 0 0 0 -0.553 -0.181h-0.029c-0.448 -1.058 -0.677 -2.212 -0.677 -3.366 0 -0.572 0.057 -1.135 0.162 -1.678H7.69c0.086 0.315 0.362 0.543 0.706 0.543 0.4 0 0.734 -0.324 0.734 -0.734 0 -0.4 -0.324 -0.734 -0.734 -0.734 -0.344 0 -0.62 0.229 -0.706 0.543h-4.1c0.772 -3.137 3.251 -5.644 6.455 -6.388 0.172 0.276 0.477 0.467 0.82 0.467 0.534 0 0.963 -0.429 0.963 -0.963S11.399 0 10.865 0c-0.467 0 -0.848 0.334 -0.944 0.763 -4.205 0.953 -7.285 4.739 -7.285 9.125 0 1.249 0.248 2.498 0.735 3.642 -0.181 0.172 -0.286 0.42 -0.286 0.687 0 0.429 0.276 0.782 0.658 0.915v3.757c0 0.067 0.019 0.134 0.057 0.191l0.21 0.143 2.851 2.012v2.403c0 0.2 0.162 0.362 0.362 0.362h9.535c0.2 0 0.362 -0.162 0.362 -0.362v-2.403l2.861 -2.012 0.21 -0.153a0.3437 0.3437 0 0 0 0.057 -0.19v-3.786c0.353 -0.143 0.601 -0.486 0.601 -0.887 0 -0.248 -0.096 -0.476 -0.248 -0.648 0.505 -1.135 0.763 -2.393 0.763 -3.662Zm-1.383 3.366h-0.086c-0.534 0 -0.963 0.429 -0.963 0.963 0 0.41 0.258 0.763 0.629 0.897v3.509l-3.003 2.117c-0.096 0.066 -0.153 0.181 -0.153 0.295v2.022c0 0.114 -0.095 0.209 -0.21 0.209H15.08c-0.115 0 -0.21 -0.095 -0.21 -0.209v-0.725c0 -0.191 -0.133 -0.362 -0.324 -0.382 -0.219 -0.019 -0.401 0.153 -0.401 0.363v0.753c0 0.115 -0.095 0.21 -0.209 0.21h-1.364a0.212 0.212 0 0 1 -0.21 -0.21v-1.116c0 -0.19 -0.133 -0.362 -0.324 -0.381 -0.219 -0.019 -0.4 0.153 -0.4 0.362v1.145c0 0.114 -0.096 0.209 -0.21 0.209h-1.364a0.2109 0.2109 0 0 1 -0.209 -0.209v-0.744c0 -0.191 -0.134 -0.362 -0.325 -0.382 -0.219 -0.019 -0.4 0.153 -0.4 0.363v0.753c0 0.115 -0.095 0.21 -0.21 0.21H7.805c-0.115 0 -0.21 -0.095 -0.21 -0.21v-2.021c0 -0.115 -0.057 -0.229 -0.153 -0.296l-2.994 -2.117v-3.547a0.9594 0.9594 0 0 0 0.563 -0.877c0 -0.057 -0.01 -0.114 -0.019 -0.172 0.381 -0.133 3.289 -1.173 6.15 -2.956 3.871 -2.412 6.017 -5.149 6.264 -7.961 1.669 1.344 2.823 3.289 3.157 5.473 -0.048 4.777 -8.372 7.723 -8.458 7.752 -0.019 0.009 -0.067 0.019 -0.105 0.038 -0.105 -0.019 -0.21 -0.038 -0.324 -0.057 -0.076 -0.019 -0.162 -0.029 -0.239 -0.048 -0.124 -0.019 -0.247 -0.048 -0.371 -0.076 -0.02 -0.01 -0.048 -0.01 -0.067 -0.01 -0.048 -0.009 -0.096 -0.019 -0.143 -0.028 -0.057 -0.01 -0.115 -0.029 -0.172 -0.039 -0.133 -0.028 -0.267 -0.057 -0.391 -0.095 -0.238 -0.057 -0.467 -0.124 -0.696 -0.181 -0.219 -0.067 -0.448 -0.124 -0.658 -0.191H8.92c-0.162 -0.047 -0.315 -0.095 -0.467 -0.152a0.9996 0.9996 0 0 0 -0.153 -0.048c-0.076 -0.029 -0.143 -0.048 -0.209 -0.067 -0.124 -0.038 -0.239 -0.076 -0.344 -0.124h-0.009a5.9785 5.9785 0 0 1 -0.458 -0.171c-0.143 -0.058 -0.267 -0.105 -0.362 -0.143 -0.096 -0.048 -0.181 -0.077 -0.229 -0.105 -0.057 -0.029 -0.086 -0.038 -0.086 -0.038s0.019 0.028 0.057 0.066c0.038 0.048 0.096 0.115 0.181 0.191 0.077 0.076 0.182 0.172 0.306 0.267 0.124 0.095 0.267 0.2 0.419 0.305h0.01c-0.058 0.191 -0.096 0.401 -0.096 0.61 0 1.097 0.897 1.993 1.993 1.993 0.849 0 1.573 -0.534 1.86 -1.287 0.095 0.01 0.2 0.019 0.295 0.029 0.172 0.009 0.334 0.009 0.486 0.009 0.01 0 0.019 0.01 0.029 0.01l1.611 1.64c0.41 0.41 1.049 0.477 1.526 0.162l2.517 -1.411c0.22 -0.143 0.363 -0.391 0.363 -0.658v-2.899c0.972 -0.772 1.85 -1.688 2.422 -2.727 -0.105 0.753 -0.305 1.468 -0.601 2.145Zm-7.799 5.87 -0.002 -0.002c-0.002 -0.002 -0.004 -0.003 -0.008 -0.003a0.0437 0.0437 0 0 0 -0.013 -0.009l-0.003 -0.002a0.028 0.028 0 0 1 -0.013 -0.009c-0.01 0 -0.019 -0.009 -0.029 -0.009 -0.009 0 -0.019 -0.01 -0.019 -0.01 -0.009 0 -0.019 0 -0.028 -0.009h-0.115c-0.009 0 -0.019 0 -0.028 0.009 -0.01 0 -0.019 0.01 -0.019 0.01 -0.01 0 -0.019 0.009 -0.029 0.009 -0.009 0 -0.019 0.01 -0.029 0.02 -0.009 0 -0.009 0.009 -0.019 0.009l-0.038 0.038 -0.772 0.963c-0.095 0.124 -0.076 0.296 0.048 0.391 0.047 0.038 0.114 0.057 0.171 0.057 0.086 0 0.162 -0.038 0.219 -0.104l0.01 -0.01c0.286 -0.353 0.82 -0.353 1.097 0l0.009 0.01c0.057 0.066 0.134 0.104 0.219 0.104 0.058 0 0.124 -0.019 0.172 -0.057 0.124 -0.095 0.143 -0.276 0.048 -0.391l-0.782 -0.953c-0.01 -0.01 -0.019 -0.019 -0.019 -0.029 -0.01 -0.009 -0.01 -0.009 -0.019 -0.019a0.0127 0.0127 0 0 1 -0.009 -0.004Zm-1.622 -2.265c-0.038 0.076 -0.095 0.152 -0.143 0.219 -0.229 0.267 -0.572 0.439 -0.953 0.439 -0.382 0 -0.725 -0.172 -0.954 -0.439 -0.191 -0.219 -0.295 -0.505 -0.295 -0.81 0 -0.077 0.009 -0.144 0.019 -0.22 0.152 0.076 0.314 0.153 0.476 0.229 0.22 0.095 0.449 0.191 0.687 0.267 0.238 0.086 0.486 0.153 0.734 0.219 0.143 0.038 0.286 0.067 0.429 0.096Zm-6.503 -2.184c-0.114 0 -0.219 -0.048 -0.305 -0.114 -0.095 -0.086 -0.162 -0.21 -0.162 -0.344 0 -0.057 0.01 -0.114 0.029 -0.162 0.066 -0.171 0.238 -0.295 0.429 -0.295 0.085 0 0.162 0.028 0.229 0.067 0.133 0.076 0.228 0.228 0.228 0.4 0 0.086 -0.028 0.162 -0.066 0.229 -0.067 0.133 -0.21 0.219 -0.382 0.219Zm16.21 -0.181c-0.086 0.105 -0.219 0.181 -0.362 0.181 -0.134 0 -0.248 -0.057 -0.334 -0.143 -0.076 -0.086 -0.124 -0.191 -0.124 -0.315 0 -0.2 0.124 -0.371 0.305 -0.429 0.048 -0.019 0.105 -0.028 0.162 -0.028 0.219 0 0.41 0.162 0.458 0.372 0.009 0.028 0.009 0.057 0.009 0.095 -0.019 0.095 -0.057 0.191 -0.114 0.267Zm-5.845 -9.869c0 0.029 0.009 0.048 0.009 0.067l-1.163 0.438V1.897c0.286 -0.047 0.525 -0.219 0.658 -0.457 1.02 0.229 1.974 0.639 2.823 1.201 -0.01 1.411 -0.554 2.708 -1.412 3.881V5.34c0.315 -0.086 0.544 -0.363 0.544 -0.706 0 -0.4 -0.324 -0.734 -0.734 -0.734 -0.401 0.009 -0.725 0.334 -0.725 0.734Zm-3.48 -1.735c-0.391 0 -0.716 0.305 -0.735 0.696l-1.458 0.534c-0.077 0.028 -0.134 0.095 -0.134 0.181v0.925H7.442c-0.086 -0.315 -0.362 -0.544 -0.705 -0.544 -0.401 0 -0.735 0.324 -0.735 0.735 0 0.4 0.325 0.734 0.735 0.734 0.343 0 0.619 -0.229 0.705 -0.544h1.364c0.105 0 0.19 -0.086 0.19 -0.19v-0.983l1.288 -0.476c0.124 0.238 0.372 0.4 0.648 0.4 0.401 0 0.734 -0.324 0.734 -0.734 0.01 -0.401 -0.324 -0.734 -0.724 -0.734Zm-0.41 -2.241a0.4605 0.4605 0 0 1 0.343 -0.153c0.257 0 0.467 0.21 0.467 0.468 0 0.257 -0.21 0.467 -0.467 0.467 -0.096 0 -0.181 -0.029 -0.258 -0.076 -0.124 -0.086 -0.209 -0.229 -0.209 -0.382 0 -0.133 0.047 -0.248 0.124 -0.324Zm2.097 0.305c0 -0.257 0.21 -0.467 0.468 -0.467 0.133 0 0.247 0.057 0.333 0.143 0.077 0.086 0.124 0.191 0.124 0.315 0 0.152 -0.076 0.295 -0.2 0.381 -0.076 0.057 -0.162 0.086 -0.267 0.086 -0.248 0.009 -0.458 -0.2 -0.458 -0.458Z" fill="#000000" stroke-width="1"></path>
</svg>